<mxfile host="Electron" modified="2023-10-30T11:00:48.301Z" agent="Mozilla/5.0 (Windows NT 10.0; Win64; x64) AppleWebKit/537.36 (KHTML, like Gecko) draw.io/22.0.3 Chrome/114.0.5735.289 Electron/25.8.4 Safari/537.36" etag="tbsM1-qNKnQOd0EOlVsy" version="22.0.3" type="device" pages="7">
  <diagram id="cR5pu6sVXLdeZJdlKHJX" name="HLD1st">
    <mxGraphModel dx="1274" dy="650" grid="1" gridSize="10" guides="1" tooltips="1" connect="1" arrows="1" fold="1" page="1" pageScale="1" pageWidth="850" pageHeight="1100" math="0" shadow="0">
      <root>
        <mxCell id="0" />
        <mxCell id="1" parent="0" />
        <mxCell id="S6WOY99kPLuRR41IJXB_-1" value="User Interface" style="rounded=0;whiteSpace=wrap;html=1;" parent="1" vertex="1">
          <mxGeometry x="40" y="320" width="120" height="80" as="geometry" />
        </mxCell>
        <mxCell id="414Bi5fwNiV7KJJ_B3pM-6" style="edgeStyle=orthogonalEdgeStyle;rounded=0;orthogonalLoop=1;jettySize=auto;html=1;exitX=1;exitY=0.5;exitDx=0;exitDy=0;entryX=0.5;entryY=0;entryDx=0;entryDy=0;" edge="1" parent="1" source="S6WOY99kPLuRR41IJXB_-4" target="S6WOY99kPLuRR41IJXB_-8">
          <mxGeometry relative="1" as="geometry" />
        </mxCell>
        <mxCell id="S6WOY99kPLuRR41IJXB_-4" value="Data from Keyboard&lt;br&gt;(interger number)" style="rounded=0;whiteSpace=wrap;html=1;" parent="1" vertex="1">
          <mxGeometry x="240" y="220" width="120" height="60" as="geometry" />
        </mxCell>
        <mxCell id="414Bi5fwNiV7KJJ_B3pM-12" style="edgeStyle=orthogonalEdgeStyle;rounded=0;orthogonalLoop=1;jettySize=auto;html=1;exitX=1;exitY=0.75;exitDx=0;exitDy=0;entryX=0.75;entryY=1;entryDx=0;entryDy=0;" edge="1" parent="1" source="S6WOY99kPLuRR41IJXB_-5" target="S6WOY99kPLuRR41IJXB_-8">
          <mxGeometry relative="1" as="geometry" />
        </mxCell>
        <mxCell id="S6WOY99kPLuRR41IJXB_-5" value="From Binary file" style="rounded=0;whiteSpace=wrap;html=1;" parent="1" vertex="1">
          <mxGeometry x="240" y="530" width="120" height="60" as="geometry" />
        </mxCell>
        <mxCell id="414Bi5fwNiV7KJJ_B3pM-7" style="edgeStyle=orthogonalEdgeStyle;rounded=0;orthogonalLoop=1;jettySize=auto;html=1;exitX=0;exitY=0.5;exitDx=0;exitDy=0;entryX=1;entryY=0.5;entryDx=0;entryDy=0;" edge="1" parent="1" source="S6WOY99kPLuRR41IJXB_-8" target="S6WOY99kPLuRR41IJXB_-9">
          <mxGeometry relative="1" as="geometry" />
        </mxCell>
        <mxCell id="xC0-ajYjaXyYCLkdP9ms-23" style="edgeStyle=orthogonalEdgeStyle;rounded=0;orthogonalLoop=1;jettySize=auto;html=1;exitX=0.25;exitY=0;exitDx=0;exitDy=0;entryX=0.5;entryY=0;entryDx=0;entryDy=0;" edge="1" parent="1" source="S6WOY99kPLuRR41IJXB_-8" target="S6WOY99kPLuRR41IJXB_-30">
          <mxGeometry relative="1" as="geometry" />
        </mxCell>
        <mxCell id="S6WOY99kPLuRR41IJXB_-8" value="S-Record Converter" style="rounded=0;whiteSpace=wrap;html=1;" parent="1" vertex="1">
          <mxGeometry x="710" y="330" width="120" height="60" as="geometry" />
        </mxCell>
        <mxCell id="414Bi5fwNiV7KJJ_B3pM-8" style="edgeStyle=orthogonalEdgeStyle;rounded=0;orthogonalLoop=1;jettySize=auto;html=1;exitX=0;exitY=0.5;exitDx=0;exitDy=0;entryX=1;entryY=0.5;entryDx=0;entryDy=0;" edge="1" parent="1" source="S6WOY99kPLuRR41IJXB_-9" target="S6WOY99kPLuRR41IJXB_-30">
          <mxGeometry relative="1" as="geometry" />
        </mxCell>
        <mxCell id="S6WOY99kPLuRR41IJXB_-9" value="S-Record File" style="rounded=0;whiteSpace=wrap;html=1;" parent="1" vertex="1">
          <mxGeometry x="540" y="330" width="120" height="60" as="geometry" />
        </mxCell>
        <mxCell id="S6WOY99kPLuRR41IJXB_-12" value="" style="endArrow=classic;html=1;rounded=0;entryX=0;entryY=1;entryDx=0;entryDy=0;" parent="1" target="S6WOY99kPLuRR41IJXB_-4" edge="1">
          <mxGeometry width="50" height="50" relative="1" as="geometry">
            <mxPoint x="160" y="360" as="sourcePoint" />
            <mxPoint x="210" y="310" as="targetPoint" />
          </mxGeometry>
        </mxCell>
        <mxCell id="S6WOY99kPLuRR41IJXB_-30" value="Checksum" style="rounded=0;whiteSpace=wrap;html=1;" parent="1" vertex="1">
          <mxGeometry x="240" y="330" width="120" height="60" as="geometry" />
        </mxCell>
        <mxCell id="S6WOY99kPLuRR41IJXB_-34" value="" style="endArrow=classic;html=1;rounded=0;exitX=0;exitY=0.5;exitDx=0;exitDy=0;entryX=1;entryY=0.5;entryDx=0;entryDy=0;" parent="1" source="S6WOY99kPLuRR41IJXB_-30" target="S6WOY99kPLuRR41IJXB_-1" edge="1">
          <mxGeometry width="50" height="50" relative="1" as="geometry">
            <mxPoint x="450" y="490" as="sourcePoint" />
            <mxPoint x="500" y="440" as="targetPoint" />
          </mxGeometry>
        </mxCell>
        <mxCell id="414Bi5fwNiV7KJJ_B3pM-1" value="" style="endArrow=classic;html=1;rounded=0;exitX=1;exitY=0.5;exitDx=0;exitDy=0;entryX=0;entryY=0.5;entryDx=0;entryDy=0;" edge="1" parent="1" source="S6WOY99kPLuRR41IJXB_-1" target="S6WOY99kPLuRR41IJXB_-5">
          <mxGeometry width="50" height="50" relative="1" as="geometry">
            <mxPoint x="200" y="440" as="sourcePoint" />
            <mxPoint x="250" y="390" as="targetPoint" />
          </mxGeometry>
        </mxCell>
        <mxCell id="414Bi5fwNiV7KJJ_B3pM-17" value="" style="endArrow=block;startArrow=none;endFill=0;startFill=0;endSize=8;html=1;verticalAlign=bottom;dashed=1;labelBackgroundColor=none;rounded=0;entryX=0.25;entryY=1;entryDx=0;entryDy=0;" edge="1" parent="1" target="S6WOY99kPLuRR41IJXB_-8">
          <mxGeometry width="160" relative="1" as="geometry">
            <mxPoint x="740" y="550" as="sourcePoint" />
            <mxPoint x="460" y="620.0000000000001" as="targetPoint" />
          </mxGeometry>
        </mxCell>
        <mxCell id="414Bi5fwNiV7KJJ_B3pM-19" value="" style="endArrow=none;dashed=1;html=1;rounded=0;exitX=1;exitY=0.25;exitDx=0;exitDy=0;" edge="1" parent="1">
          <mxGeometry width="50" height="50" relative="1" as="geometry">
            <mxPoint x="360" y="550" as="sourcePoint" />
            <mxPoint x="740" y="550" as="targetPoint" />
          </mxGeometry>
        </mxCell>
        <mxCell id="xC0-ajYjaXyYCLkdP9ms-9" value="Convert Data to S-Record format" style="text;html=1;align=center;verticalAlign=middle;resizable=0;points=[];autosize=1;strokeColor=none;fillColor=none;" vertex="1" parent="1">
          <mxGeometry x="400" y="210" width="200" height="30" as="geometry" />
        </mxCell>
        <mxCell id="xC0-ajYjaXyYCLkdP9ms-10" value="Convert Data to S-Record format" style="text;html=1;align=center;verticalAlign=middle;resizable=0;points=[];autosize=1;strokeColor=none;fillColor=none;" vertex="1" parent="1">
          <mxGeometry x="390" y="520" width="200" height="30" as="geometry" />
        </mxCell>
        <mxCell id="xC0-ajYjaXyYCLkdP9ms-13" value="Binary converter" style="rounded=0;whiteSpace=wrap;html=1;" vertex="1" parent="1">
          <mxGeometry x="540" y="440" width="120" height="60" as="geometry" />
        </mxCell>
        <mxCell id="xC0-ajYjaXyYCLkdP9ms-16" value="" style="endArrow=block;startArrow=none;endFill=0;startFill=0;endSize=8;html=1;verticalAlign=bottom;dashed=1;labelBackgroundColor=none;rounded=0;entryX=0.5;entryY=0;entryDx=0;entryDy=0;exitX=0.5;exitY=1;exitDx=0;exitDy=0;" edge="1" parent="1" source="S6WOY99kPLuRR41IJXB_-9" target="xC0-ajYjaXyYCLkdP9ms-13">
          <mxGeometry width="160" relative="1" as="geometry">
            <mxPoint x="540" y="430.00000000000006" as="sourcePoint" />
            <mxPoint x="290" y="430.00000000000006" as="targetPoint" />
          </mxGeometry>
        </mxCell>
        <mxCell id="xC0-ajYjaXyYCLkdP9ms-17" value="" style="endArrow=none;dashed=1;html=1;rounded=0;entryX=0;entryY=0.5;entryDx=0;entryDy=0;" edge="1" parent="1" target="xC0-ajYjaXyYCLkdP9ms-13">
          <mxGeometry width="50" height="50" relative="1" as="geometry">
            <mxPoint x="300" y="470" as="sourcePoint" />
            <mxPoint x="400" y="470" as="targetPoint" />
          </mxGeometry>
        </mxCell>
        <mxCell id="xC0-ajYjaXyYCLkdP9ms-18" value="Convert Data from S-Record format &lt;br&gt;to Binary format" style="text;html=1;align=center;verticalAlign=middle;resizable=0;points=[];autosize=1;strokeColor=none;fillColor=none;" vertex="1" parent="1">
          <mxGeometry x="310" y="435" width="210" height="40" as="geometry" />
        </mxCell>
        <mxCell id="xC0-ajYjaXyYCLkdP9ms-19" value="" style="endArrow=block;startArrow=none;endFill=0;startFill=0;endSize=8;html=1;verticalAlign=bottom;dashed=1;labelBackgroundColor=none;rounded=0;entryX=0.5;entryY=0;entryDx=0;entryDy=0;" edge="1" parent="1" target="S6WOY99kPLuRR41IJXB_-5">
          <mxGeometry width="160" relative="1" as="geometry">
            <mxPoint x="300" y="470" as="sourcePoint" />
            <mxPoint x="110" y="430" as="targetPoint" />
          </mxGeometry>
        </mxCell>
        <mxCell id="xC0-ajYjaXyYCLkdP9ms-20" value="" style="endArrow=block;startArrow=none;endFill=0;startFill=0;endSize=8;html=1;verticalAlign=bottom;dashed=1;labelBackgroundColor=none;rounded=0;entryX=1;entryY=0.75;entryDx=0;entryDy=0;exitX=0;exitY=0.75;exitDx=0;exitDy=0;" edge="1" parent="1" source="S6WOY99kPLuRR41IJXB_-8" target="S6WOY99kPLuRR41IJXB_-9">
          <mxGeometry width="160" relative="1" as="geometry">
            <mxPoint x="540" y="380" as="sourcePoint" />
            <mxPoint x="540" y="440" as="targetPoint" />
          </mxGeometry>
        </mxCell>
        <mxCell id="xC0-ajYjaXyYCLkdP9ms-21" value="" style="endArrow=block;startArrow=none;endFill=0;startFill=0;endSize=8;html=1;verticalAlign=bottom;dashed=1;labelBackgroundColor=none;rounded=0;exitX=0;exitY=0.75;exitDx=0;exitDy=0;" edge="1" parent="1">
          <mxGeometry width="160" relative="1" as="geometry">
            <mxPoint x="20" y="530.71" as="sourcePoint" />
            <mxPoint x="100" y="530.71" as="targetPoint" />
          </mxGeometry>
        </mxCell>
        <mxCell id="xC0-ajYjaXyYCLkdP9ms-22" value="Convert 1-1" style="text;html=1;align=center;verticalAlign=middle;resizable=0;points=[];autosize=1;strokeColor=none;fillColor=none;" vertex="1" parent="1">
          <mxGeometry x="102" y="516" width="90" height="30" as="geometry" />
        </mxCell>
        <mxCell id="xC0-ajYjaXyYCLkdP9ms-24" value="Get Data after convert" style="text;html=1;align=center;verticalAlign=middle;resizable=0;points=[];autosize=1;strokeColor=none;fillColor=none;" vertex="1" parent="1">
          <mxGeometry x="405" y="280" width="140" height="30" as="geometry" />
        </mxCell>
        <mxCell id="xC0-ajYjaXyYCLkdP9ms-26" value="Get Data from S-Record file" style="text;html=1;align=center;verticalAlign=middle;resizable=0;points=[];autosize=1;strokeColor=none;fillColor=none;" vertex="1" parent="1">
          <mxGeometry x="360" y="330" width="170" height="30" as="geometry" />
        </mxCell>
        <mxCell id="xC0-ajYjaXyYCLkdP9ms-27" value="" style="endArrow=classic;html=1;rounded=0;exitX=0;exitY=0.5;exitDx=0;exitDy=0;" edge="1" parent="1">
          <mxGeometry width="50" height="50" relative="1" as="geometry">
            <mxPoint x="100" y="566" as="sourcePoint" />
            <mxPoint x="100" y="566" as="targetPoint" />
            <Array as="points">
              <mxPoint x="20" y="566" />
            </Array>
          </mxGeometry>
        </mxCell>
        <mxCell id="xC0-ajYjaXyYCLkdP9ms-28" value="Line of functions" style="text;html=1;align=center;verticalAlign=middle;resizable=0;points=[];autosize=1;strokeColor=none;fillColor=none;" vertex="1" parent="1">
          <mxGeometry x="102" y="554" width="110" height="30" as="geometry" />
        </mxCell>
      </root>
    </mxGraphModel>
  </diagram>
  <diagram name="Func1_keyboard" id="0euOxppyCld27NwJpYg-">
    <mxGraphModel dx="1341" dy="684" grid="1" gridSize="10" guides="1" tooltips="1" connect="1" arrows="1" fold="1" page="1" pageScale="1" pageWidth="850" pageHeight="1100" math="0" shadow="0">
      <root>
        <mxCell id="0" />
        <mxCell id="1" parent="0" />
        <mxCell id="WoYAvUmsLGKLr_8IiHDk-4" value="User Interface" style="shape=umlLifeline;perimeter=lifelinePerimeter;whiteSpace=wrap;html=1;container=1;dropTarget=0;collapsible=0;recursiveResize=0;outlineConnect=0;portConstraint=eastwest;newEdgeStyle={&quot;edgeStyle&quot;:&quot;elbowEdgeStyle&quot;,&quot;elbow&quot;:&quot;vertical&quot;,&quot;curved&quot;:0,&quot;rounded&quot;:0};" parent="1" vertex="1">
          <mxGeometry x="20" y="40" width="100" height="400" as="geometry" />
        </mxCell>
        <mxCell id="WoYAvUmsLGKLr_8IiHDk-5" value="" style="html=1;points=[[0,0,0,0,5],[0,1,0,0,-5],[1,0,0,0,5],[1,1,0,0,-5]];perimeter=orthogonalPerimeter;outlineConnect=0;targetShapes=umlLifeline;portConstraint=eastwest;newEdgeStyle={&quot;curved&quot;:0,&quot;rounded&quot;:0};" parent="WoYAvUmsLGKLr_8IiHDk-4" vertex="1">
          <mxGeometry x="40" y="70" width="20" height="290" as="geometry" />
        </mxCell>
        <mxCell id="WoYAvUmsLGKLr_8IiHDk-9" value="Checksum" style="shape=umlLifeline;perimeter=lifelinePerimeter;whiteSpace=wrap;html=1;container=1;dropTarget=0;collapsible=0;recursiveResize=0;outlineConnect=0;portConstraint=eastwest;newEdgeStyle={&quot;edgeStyle&quot;:&quot;elbowEdgeStyle&quot;,&quot;elbow&quot;:&quot;vertical&quot;,&quot;curved&quot;:0,&quot;rounded&quot;:0};" parent="1" vertex="1">
          <mxGeometry x="720" y="40" width="100" height="420" as="geometry" />
        </mxCell>
        <mxCell id="WoYAvUmsLGKLr_8IiHDk-10" value="" style="html=1;points=[[0,0,0,0,5],[0,1,0,0,-5],[1,0,0,0,5],[1,1,0,0,-5]];perimeter=orthogonalPerimeter;outlineConnect=0;targetShapes=umlLifeline;portConstraint=eastwest;newEdgeStyle={&quot;curved&quot;:0,&quot;rounded&quot;:0};" parent="WoYAvUmsLGKLr_8IiHDk-9" vertex="1">
          <mxGeometry x="40" y="250" width="20" height="110" as="geometry" />
        </mxCell>
        <mxCell id="WoYAvUmsLGKLr_8IiHDk-11" value="" style="html=1;verticalAlign=bottom;labelBackgroundColor=none;endArrow=block;endFill=1;rounded=0;" parent="1" edge="1">
          <mxGeometry width="160" relative="1" as="geometry">
            <mxPoint x="80" y="150" as="sourcePoint" />
            <mxPoint x="220" y="150" as="targetPoint" />
          </mxGeometry>
        </mxCell>
        <mxCell id="2gfJuZ0ts9tCoOPd8o5x-1" value="1: Input from keyboard" style="text;html=1;align=center;verticalAlign=middle;resizable=0;points=[];autosize=1;strokeColor=none;fillColor=none;" vertex="1" parent="1">
          <mxGeometry x="80" y="120" width="140" height="30" as="geometry" />
        </mxCell>
        <mxCell id="tQp_XOrEnE-1pRWy6kSu-2" value="S-Record Converter" style="shape=umlLifeline;perimeter=lifelinePerimeter;whiteSpace=wrap;html=1;container=1;dropTarget=0;collapsible=0;recursiveResize=0;outlineConnect=0;portConstraint=eastwest;newEdgeStyle={&quot;edgeStyle&quot;:&quot;elbowEdgeStyle&quot;,&quot;elbow&quot;:&quot;vertical&quot;,&quot;curved&quot;:0,&quot;rounded&quot;:0};" vertex="1" parent="1">
          <mxGeometry x="400" y="40" width="100" height="400" as="geometry" />
        </mxCell>
        <mxCell id="tQp_XOrEnE-1pRWy6kSu-7" value="" style="html=1;points=[[0,0,0,0,5],[0,1,0,0,-5],[1,0,0,0,5],[1,1,0,0,-5]];perimeter=orthogonalPerimeter;outlineConnect=0;targetShapes=umlLifeline;portConstraint=eastwest;newEdgeStyle={&quot;curved&quot;:0,&quot;rounded&quot;:0};" vertex="1" parent="tQp_XOrEnE-1pRWy6kSu-2">
          <mxGeometry x="40" y="170" width="20" height="40" as="geometry" />
        </mxCell>
        <mxCell id="tQp_XOrEnE-1pRWy6kSu-18" value="" style="html=1;points=[[0,0,0,0,5],[0,1,0,0,-5],[1,0,0,0,5],[1,1,0,0,-5]];perimeter=orthogonalPerimeter;outlineConnect=0;targetShapes=umlLifeline;portConstraint=eastwest;newEdgeStyle={&quot;curved&quot;:0,&quot;rounded&quot;:0};" vertex="1" parent="tQp_XOrEnE-1pRWy6kSu-2">
          <mxGeometry x="40" y="280" width="20" height="40" as="geometry" />
        </mxCell>
        <mxCell id="tQp_XOrEnE-1pRWy6kSu-3" value="S-Record File" style="shape=umlLifeline;perimeter=lifelinePerimeter;whiteSpace=wrap;html=1;container=1;dropTarget=0;collapsible=0;recursiveResize=0;outlineConnect=0;portConstraint=eastwest;newEdgeStyle={&quot;edgeStyle&quot;:&quot;elbowEdgeStyle&quot;,&quot;elbow&quot;:&quot;vertical&quot;,&quot;curved&quot;:0,&quot;rounded&quot;:0};" vertex="1" parent="1">
          <mxGeometry x="560" y="40" width="100" height="400" as="geometry" />
        </mxCell>
        <mxCell id="tQp_XOrEnE-1pRWy6kSu-10" value="" style="html=1;points=[[0,0,0,0,5],[0,1,0,0,-5],[1,0,0,0,5],[1,1,0,0,-5]];perimeter=orthogonalPerimeter;outlineConnect=0;targetShapes=umlLifeline;portConstraint=eastwest;newEdgeStyle={&quot;curved&quot;:0,&quot;rounded&quot;:0};" vertex="1" parent="tQp_XOrEnE-1pRWy6kSu-3">
          <mxGeometry x="40" y="210" width="20" height="40" as="geometry" />
        </mxCell>
        <mxCell id="tQp_XOrEnE-1pRWy6kSu-4" value="Data&lt;br&gt;(integer number)" style="shape=umlLifeline;perimeter=lifelinePerimeter;whiteSpace=wrap;html=1;container=1;dropTarget=0;collapsible=0;recursiveResize=0;outlineConnect=0;portConstraint=eastwest;newEdgeStyle={&quot;edgeStyle&quot;:&quot;elbowEdgeStyle&quot;,&quot;elbow&quot;:&quot;vertical&quot;,&quot;curved&quot;:0,&quot;rounded&quot;:0};" vertex="1" parent="1">
          <mxGeometry x="180" y="40" width="100" height="400" as="geometry" />
        </mxCell>
        <mxCell id="tQp_XOrEnE-1pRWy6kSu-5" value="" style="html=1;points=[[0,0,0,0,5],[0,1,0,0,-5],[1,0,0,0,5],[1,1,0,0,-5]];perimeter=orthogonalPerimeter;outlineConnect=0;targetShapes=umlLifeline;portConstraint=eastwest;newEdgeStyle={&quot;curved&quot;:0,&quot;rounded&quot;:0};" vertex="1" parent="tQp_XOrEnE-1pRWy6kSu-4">
          <mxGeometry x="40" y="110" width="20" height="60" as="geometry" />
        </mxCell>
        <mxCell id="YMi0rDAgLWljxrvIs02D-7" value="" style="html=1;points=[[0,0,0,0,5],[0,1,0,0,-5],[1,0,0,0,5],[1,1,0,0,-5]];perimeter=orthogonalPerimeter;outlineConnect=0;targetShapes=umlLifeline;portConstraint=eastwest;newEdgeStyle={&quot;curved&quot;:0,&quot;rounded&quot;:0};" vertex="1" parent="tQp_XOrEnE-1pRWy6kSu-4">
          <mxGeometry x="50" y="140" width="20" height="22.5" as="geometry" />
        </mxCell>
        <mxCell id="YMi0rDAgLWljxrvIs02D-12" style="edgeStyle=orthogonalEdgeStyle;rounded=0;orthogonalLoop=1;jettySize=auto;html=1;curved=0;exitX=1;exitY=0;exitDx=0;exitDy=5;exitPerimeter=0;entryX=1.024;entryY=0.049;entryDx=0;entryDy=0;entryPerimeter=0;" edge="1" parent="tQp_XOrEnE-1pRWy6kSu-4" source="tQp_XOrEnE-1pRWy6kSu-5" target="YMi0rDAgLWljxrvIs02D-7">
          <mxGeometry relative="1" as="geometry">
            <Array as="points">
              <mxPoint x="80" y="115" />
              <mxPoint x="80" y="141" />
            </Array>
          </mxGeometry>
        </mxCell>
        <mxCell id="tQp_XOrEnE-1pRWy6kSu-9" value="2: Convert to S-record format" style="text;html=1;align=center;verticalAlign=middle;resizable=0;points=[];autosize=1;strokeColor=none;fillColor=none;" vertex="1" parent="1">
          <mxGeometry x="250" y="180" width="180" height="30" as="geometry" />
        </mxCell>
        <mxCell id="tQp_XOrEnE-1pRWy6kSu-15" value="Check data" style="text;html=1;align=center;verticalAlign=middle;resizable=0;points=[];autosize=1;strokeColor=none;fillColor=none;" vertex="1" parent="1">
          <mxGeometry x="240" y="130" width="80" height="30" as="geometry" />
        </mxCell>
        <mxCell id="tQp_XOrEnE-1pRWy6kSu-21" value="3: Write to file" style="text;html=1;align=center;verticalAlign=middle;resizable=0;points=[];autosize=1;strokeColor=none;fillColor=none;" vertex="1" parent="1">
          <mxGeometry x="480" y="220" width="100" height="30" as="geometry" />
        </mxCell>
        <mxCell id="tQp_XOrEnE-1pRWy6kSu-24" value="" style="html=1;verticalAlign=bottom;labelBackgroundColor=none;endArrow=block;endFill=1;rounded=0;" edge="1" parent="1">
          <mxGeometry width="160" relative="1" as="geometry">
            <mxPoint x="620" y="290" as="sourcePoint" />
            <mxPoint x="760" y="290" as="targetPoint" />
            <Array as="points">
              <mxPoint x="760" y="290" />
            </Array>
          </mxGeometry>
        </mxCell>
        <mxCell id="tQp_XOrEnE-1pRWy6kSu-28" value="" style="html=1;verticalAlign=bottom;labelBackgroundColor=none;endArrow=open;endFill=0;dashed=1;rounded=0;" edge="1" parent="1" source="WoYAvUmsLGKLr_8IiHDk-10">
          <mxGeometry width="160" relative="1" as="geometry">
            <mxPoint x="750" y="400" as="sourcePoint" />
            <mxPoint x="80" y="400" as="targetPoint" />
          </mxGeometry>
        </mxCell>
        <mxCell id="tQp_XOrEnE-1pRWy6kSu-29" value="4: Get Data from&lt;br&gt;S-Record file" style="text;html=1;align=center;verticalAlign=middle;resizable=0;points=[];autosize=1;strokeColor=none;fillColor=none;" vertex="1" parent="1">
          <mxGeometry x="630" y="255" width="110" height="40" as="geometry" />
        </mxCell>
        <mxCell id="tQp_XOrEnE-1pRWy6kSu-30" value="5: Get Data after convert" style="text;html=1;align=center;verticalAlign=middle;resizable=0;points=[];autosize=1;strokeColor=none;fillColor=none;" vertex="1" parent="1">
          <mxGeometry x="480" y="320" width="150" height="30" as="geometry" />
        </mxCell>
        <mxCell id="tQp_XOrEnE-1pRWy6kSu-31" value="6: Return result after check" style="text;html=1;align=center;verticalAlign=middle;resizable=0;points=[];autosize=1;strokeColor=none;fillColor=none;" vertex="1" parent="1">
          <mxGeometry x="570" y="370" width="170" height="30" as="geometry" />
        </mxCell>
        <mxCell id="YMi0rDAgLWljxrvIs02D-4" value="" style="html=1;verticalAlign=bottom;labelBackgroundColor=none;endArrow=block;endFill=1;rounded=0;" edge="1" parent="1" target="tQp_XOrEnE-1pRWy6kSu-7">
          <mxGeometry width="160" relative="1" as="geometry">
            <mxPoint x="240" y="210" as="sourcePoint" />
            <mxPoint x="380" y="210" as="targetPoint" />
          </mxGeometry>
        </mxCell>
        <mxCell id="YMi0rDAgLWljxrvIs02D-5" value="" style="html=1;verticalAlign=bottom;labelBackgroundColor=none;endArrow=block;endFill=1;rounded=0;" edge="1" parent="1">
          <mxGeometry width="160" relative="1" as="geometry">
            <mxPoint x="460" y="250" as="sourcePoint" />
            <mxPoint x="600" y="250" as="targetPoint" />
          </mxGeometry>
        </mxCell>
        <mxCell id="YMi0rDAgLWljxrvIs02D-6" value="" style="html=1;verticalAlign=bottom;labelBackgroundColor=none;endArrow=block;endFill=1;rounded=0;" edge="1" parent="1">
          <mxGeometry width="160" relative="1" as="geometry">
            <mxPoint x="460" y="320" as="sourcePoint" />
            <mxPoint x="760" y="320" as="targetPoint" />
          </mxGeometry>
        </mxCell>
      </root>
    </mxGraphModel>
  </diagram>
  <diagram id="tSY3CGw7LrJcV98Yq4Nc" name="Func2_BinarytoS-RecordFile">
    <mxGraphModel dx="1274" dy="650" grid="1" gridSize="10" guides="1" tooltips="1" connect="1" arrows="1" fold="1" page="1" pageScale="1" pageWidth="850" pageHeight="1100" math="0" shadow="0">
      <root>
        <mxCell id="0" />
        <mxCell id="1" parent="0" />
        <mxCell id="-cEUCo4fTxZEFG1CUUtH-1" value="User Interface" style="shape=umlLifeline;perimeter=lifelinePerimeter;whiteSpace=wrap;html=1;container=1;dropTarget=0;collapsible=0;recursiveResize=0;outlineConnect=0;portConstraint=eastwest;newEdgeStyle={&quot;edgeStyle&quot;:&quot;elbowEdgeStyle&quot;,&quot;elbow&quot;:&quot;vertical&quot;,&quot;curved&quot;:0,&quot;rounded&quot;:0};" vertex="1" parent="1">
          <mxGeometry x="20" y="40" width="100" height="400" as="geometry" />
        </mxCell>
        <mxCell id="-cEUCo4fTxZEFG1CUUtH-2" value="" style="html=1;points=[[0,0,0,0,5],[0,1,0,0,-5],[1,0,0,0,5],[1,1,0,0,-5]];perimeter=orthogonalPerimeter;outlineConnect=0;targetShapes=umlLifeline;portConstraint=eastwest;newEdgeStyle={&quot;curved&quot;:0,&quot;rounded&quot;:0};" vertex="1" parent="-cEUCo4fTxZEFG1CUUtH-1">
          <mxGeometry x="40" y="70" width="20" height="290" as="geometry" />
        </mxCell>
        <mxCell id="-cEUCo4fTxZEFG1CUUtH-3" value="Checksum" style="shape=umlLifeline;perimeter=lifelinePerimeter;whiteSpace=wrap;html=1;container=1;dropTarget=0;collapsible=0;recursiveResize=0;outlineConnect=0;portConstraint=eastwest;newEdgeStyle={&quot;edgeStyle&quot;:&quot;elbowEdgeStyle&quot;,&quot;elbow&quot;:&quot;vertical&quot;,&quot;curved&quot;:0,&quot;rounded&quot;:0};" vertex="1" parent="1">
          <mxGeometry x="720" y="40" width="100" height="420" as="geometry" />
        </mxCell>
        <mxCell id="-cEUCo4fTxZEFG1CUUtH-4" value="" style="html=1;points=[[0,0,0,0,5],[0,1,0,0,-5],[1,0,0,0,5],[1,1,0,0,-5]];perimeter=orthogonalPerimeter;outlineConnect=0;targetShapes=umlLifeline;portConstraint=eastwest;newEdgeStyle={&quot;curved&quot;:0,&quot;rounded&quot;:0};" vertex="1" parent="-cEUCo4fTxZEFG1CUUtH-3">
          <mxGeometry x="40" y="250" width="20" height="110" as="geometry" />
        </mxCell>
        <mxCell id="-cEUCo4fTxZEFG1CUUtH-5" value="" style="html=1;verticalAlign=bottom;labelBackgroundColor=none;endArrow=block;endFill=1;rounded=0;" edge="1" parent="1">
          <mxGeometry width="160" relative="1" as="geometry">
            <mxPoint x="80" y="150" as="sourcePoint" />
            <mxPoint x="220" y="150" as="targetPoint" />
          </mxGeometry>
        </mxCell>
        <mxCell id="-cEUCo4fTxZEFG1CUUtH-6" value="1: Choose file" style="text;html=1;align=center;verticalAlign=middle;resizable=0;points=[];autosize=1;strokeColor=none;fillColor=none;" vertex="1" parent="1">
          <mxGeometry x="100" y="120" width="100" height="30" as="geometry" />
        </mxCell>
        <mxCell id="-cEUCo4fTxZEFG1CUUtH-7" value="S-Record Converter" style="shape=umlLifeline;perimeter=lifelinePerimeter;whiteSpace=wrap;html=1;container=1;dropTarget=0;collapsible=0;recursiveResize=0;outlineConnect=0;portConstraint=eastwest;newEdgeStyle={&quot;edgeStyle&quot;:&quot;elbowEdgeStyle&quot;,&quot;elbow&quot;:&quot;vertical&quot;,&quot;curved&quot;:0,&quot;rounded&quot;:0};" vertex="1" parent="1">
          <mxGeometry x="400" y="40" width="100" height="400" as="geometry" />
        </mxCell>
        <mxCell id="-cEUCo4fTxZEFG1CUUtH-8" value="" style="html=1;points=[[0,0,0,0,5],[0,1,0,0,-5],[1,0,0,0,5],[1,1,0,0,-5]];perimeter=orthogonalPerimeter;outlineConnect=0;targetShapes=umlLifeline;portConstraint=eastwest;newEdgeStyle={&quot;curved&quot;:0,&quot;rounded&quot;:0};" vertex="1" parent="-cEUCo4fTxZEFG1CUUtH-7">
          <mxGeometry x="40" y="170" width="20" height="40" as="geometry" />
        </mxCell>
        <mxCell id="-cEUCo4fTxZEFG1CUUtH-9" value="" style="html=1;points=[[0,0,0,0,5],[0,1,0,0,-5],[1,0,0,0,5],[1,1,0,0,-5]];perimeter=orthogonalPerimeter;outlineConnect=0;targetShapes=umlLifeline;portConstraint=eastwest;newEdgeStyle={&quot;curved&quot;:0,&quot;rounded&quot;:0};" vertex="1" parent="-cEUCo4fTxZEFG1CUUtH-7">
          <mxGeometry x="40" y="280" width="20" height="40" as="geometry" />
        </mxCell>
        <mxCell id="-cEUCo4fTxZEFG1CUUtH-10" value="S-Record File" style="shape=umlLifeline;perimeter=lifelinePerimeter;whiteSpace=wrap;html=1;container=1;dropTarget=0;collapsible=0;recursiveResize=0;outlineConnect=0;portConstraint=eastwest;newEdgeStyle={&quot;edgeStyle&quot;:&quot;elbowEdgeStyle&quot;,&quot;elbow&quot;:&quot;vertical&quot;,&quot;curved&quot;:0,&quot;rounded&quot;:0};" vertex="1" parent="1">
          <mxGeometry x="560" y="40" width="100" height="400" as="geometry" />
        </mxCell>
        <mxCell id="-cEUCo4fTxZEFG1CUUtH-11" value="" style="html=1;points=[[0,0,0,0,5],[0,1,0,0,-5],[1,0,0,0,5],[1,1,0,0,-5]];perimeter=orthogonalPerimeter;outlineConnect=0;targetShapes=umlLifeline;portConstraint=eastwest;newEdgeStyle={&quot;curved&quot;:0,&quot;rounded&quot;:0};" vertex="1" parent="-cEUCo4fTxZEFG1CUUtH-10">
          <mxGeometry x="40" y="210" width="20" height="40" as="geometry" />
        </mxCell>
        <mxCell id="-cEUCo4fTxZEFG1CUUtH-12" value="Data&lt;br&gt;(Binary)" style="shape=umlLifeline;perimeter=lifelinePerimeter;whiteSpace=wrap;html=1;container=1;dropTarget=0;collapsible=0;recursiveResize=0;outlineConnect=0;portConstraint=eastwest;newEdgeStyle={&quot;edgeStyle&quot;:&quot;elbowEdgeStyle&quot;,&quot;elbow&quot;:&quot;vertical&quot;,&quot;curved&quot;:0,&quot;rounded&quot;:0};" vertex="1" parent="1">
          <mxGeometry x="180" y="40" width="100" height="400" as="geometry" />
        </mxCell>
        <mxCell id="-cEUCo4fTxZEFG1CUUtH-13" value="" style="html=1;points=[[0,0,0,0,5],[0,1,0,0,-5],[1,0,0,0,5],[1,1,0,0,-5]];perimeter=orthogonalPerimeter;outlineConnect=0;targetShapes=umlLifeline;portConstraint=eastwest;newEdgeStyle={&quot;curved&quot;:0,&quot;rounded&quot;:0};" vertex="1" parent="-cEUCo4fTxZEFG1CUUtH-12">
          <mxGeometry x="40" y="110" width="20" height="60" as="geometry" />
        </mxCell>
        <mxCell id="-cEUCo4fTxZEFG1CUUtH-16" value="3: Convert to S-record format" style="text;html=1;align=center;verticalAlign=middle;resizable=0;points=[];autosize=1;strokeColor=none;fillColor=none;" vertex="1" parent="1">
          <mxGeometry x="250" y="180" width="180" height="30" as="geometry" />
        </mxCell>
        <mxCell id="-cEUCo4fTxZEFG1CUUtH-18" value="4: Write to file" style="text;html=1;align=center;verticalAlign=middle;resizable=0;points=[];autosize=1;strokeColor=none;fillColor=none;" vertex="1" parent="1">
          <mxGeometry x="480" y="220" width="100" height="30" as="geometry" />
        </mxCell>
        <mxCell id="-cEUCo4fTxZEFG1CUUtH-19" value="" style="html=1;verticalAlign=bottom;labelBackgroundColor=none;endArrow=block;endFill=1;rounded=0;" edge="1" parent="1">
          <mxGeometry width="160" relative="1" as="geometry">
            <mxPoint x="620" y="290" as="sourcePoint" />
            <mxPoint x="760" y="290" as="targetPoint" />
            <Array as="points">
              <mxPoint x="760" y="290" />
            </Array>
          </mxGeometry>
        </mxCell>
        <mxCell id="-cEUCo4fTxZEFG1CUUtH-20" value="" style="html=1;verticalAlign=bottom;labelBackgroundColor=none;endArrow=open;endFill=0;dashed=1;rounded=0;" edge="1" parent="1" source="-cEUCo4fTxZEFG1CUUtH-4">
          <mxGeometry width="160" relative="1" as="geometry">
            <mxPoint x="750" y="400" as="sourcePoint" />
            <mxPoint x="80" y="400" as="targetPoint" />
          </mxGeometry>
        </mxCell>
        <mxCell id="-cEUCo4fTxZEFG1CUUtH-21" value="5: Get Data from&lt;br&gt;S-Record file" style="text;html=1;align=center;verticalAlign=middle;resizable=0;points=[];autosize=1;strokeColor=none;fillColor=none;" vertex="1" parent="1">
          <mxGeometry x="630" y="255" width="110" height="40" as="geometry" />
        </mxCell>
        <mxCell id="-cEUCo4fTxZEFG1CUUtH-22" value="6: Get Data after convert" style="text;html=1;align=center;verticalAlign=middle;resizable=0;points=[];autosize=1;strokeColor=none;fillColor=none;" vertex="1" parent="1">
          <mxGeometry x="480" y="320" width="150" height="30" as="geometry" />
        </mxCell>
        <mxCell id="-cEUCo4fTxZEFG1CUUtH-23" value="7: Return result after check" style="text;html=1;align=center;verticalAlign=middle;resizable=0;points=[];autosize=1;strokeColor=none;fillColor=none;" vertex="1" parent="1">
          <mxGeometry x="570" y="370" width="170" height="30" as="geometry" />
        </mxCell>
        <mxCell id="-cEUCo4fTxZEFG1CUUtH-24" value="" style="html=1;verticalAlign=bottom;labelBackgroundColor=none;endArrow=block;endFill=1;rounded=0;" edge="1" parent="1" target="-cEUCo4fTxZEFG1CUUtH-8">
          <mxGeometry width="160" relative="1" as="geometry">
            <mxPoint x="240" y="210" as="sourcePoint" />
            <mxPoint x="380" y="210" as="targetPoint" />
          </mxGeometry>
        </mxCell>
        <mxCell id="-cEUCo4fTxZEFG1CUUtH-25" value="" style="html=1;verticalAlign=bottom;labelBackgroundColor=none;endArrow=block;endFill=1;rounded=0;" edge="1" parent="1">
          <mxGeometry width="160" relative="1" as="geometry">
            <mxPoint x="460" y="250" as="sourcePoint" />
            <mxPoint x="600" y="250" as="targetPoint" />
          </mxGeometry>
        </mxCell>
        <mxCell id="-cEUCo4fTxZEFG1CUUtH-26" value="" style="html=1;verticalAlign=bottom;labelBackgroundColor=none;endArrow=block;endFill=1;rounded=0;" edge="1" parent="1">
          <mxGeometry width="160" relative="1" as="geometry">
            <mxPoint x="460" y="320" as="sourcePoint" />
            <mxPoint x="760" y="320" as="targetPoint" />
          </mxGeometry>
        </mxCell>
        <mxCell id="-cEUCo4fTxZEFG1CUUtH-27" value="2: Check status&lt;br&gt;&amp;nbsp;of opening file" style="text;html=1;align=center;verticalAlign=middle;resizable=0;points=[];autosize=1;strokeColor=none;fillColor=none;" vertex="1" parent="1">
          <mxGeometry x="95" y="200" width="110" height="40" as="geometry" />
        </mxCell>
        <mxCell id="-cEUCo4fTxZEFG1CUUtH-28" value="" style="html=1;verticalAlign=bottom;labelBackgroundColor=none;endArrow=open;endFill=0;dashed=1;rounded=0;" edge="1" parent="1">
          <mxGeometry width="160" relative="1" as="geometry">
            <mxPoint x="220" y="194.58" as="sourcePoint" />
            <mxPoint x="80" y="194.58" as="targetPoint" />
          </mxGeometry>
        </mxCell>
      </root>
    </mxGraphModel>
  </diagram>
  <diagram id="kh6hjwyS4AH5YS9ViuzT" name="Func3_Convert_1-1">
    <mxGraphModel dx="1062" dy="542" grid="1" gridSize="10" guides="1" tooltips="1" connect="1" arrows="1" fold="1" page="1" pageScale="1" pageWidth="850" pageHeight="1100" math="0" shadow="0">
      <root>
        <mxCell id="0" />
        <mxCell id="1" parent="0" />
        <mxCell id="hbSXom2dbgFghSXixdbO-1" value="User Interface" style="shape=umlLifeline;perimeter=lifelinePerimeter;whiteSpace=wrap;html=1;container=1;dropTarget=0;collapsible=0;recursiveResize=0;outlineConnect=0;portConstraint=eastwest;newEdgeStyle={&quot;edgeStyle&quot;:&quot;elbowEdgeStyle&quot;,&quot;elbow&quot;:&quot;vertical&quot;,&quot;curved&quot;:0,&quot;rounded&quot;:0};" vertex="1" parent="1">
          <mxGeometry x="20" y="40" width="100" height="570" as="geometry" />
        </mxCell>
        <mxCell id="hbSXom2dbgFghSXixdbO-2" value="" style="html=1;points=[[0,0,0,0,5],[0,1,0,0,-5],[1,0,0,0,5],[1,1,0,0,-5]];perimeter=orthogonalPerimeter;outlineConnect=0;targetShapes=umlLifeline;portConstraint=eastwest;newEdgeStyle={&quot;curved&quot;:0,&quot;rounded&quot;:0};" vertex="1" parent="hbSXom2dbgFghSXixdbO-1">
          <mxGeometry x="40" y="70" width="20" height="460" as="geometry" />
        </mxCell>
        <mxCell id="hbSXom2dbgFghSXixdbO-5" value="" style="html=1;verticalAlign=bottom;labelBackgroundColor=none;endArrow=block;endFill=1;rounded=0;" edge="1" parent="1" target="hbSXom2dbgFghSXixdbO-35">
          <mxGeometry width="160" relative="1" as="geometry">
            <mxPoint x="80" y="150" as="sourcePoint" />
            <mxPoint x="220" y="150" as="targetPoint" />
          </mxGeometry>
        </mxCell>
        <mxCell id="hbSXom2dbgFghSXixdbO-6" value="1: Choose file" style="text;html=1;align=center;verticalAlign=middle;resizable=0;points=[];autosize=1;strokeColor=none;fillColor=none;" vertex="1" parent="1">
          <mxGeometry x="80" y="120" width="100" height="30" as="geometry" />
        </mxCell>
        <mxCell id="hbSXom2dbgFghSXixdbO-24" value="2: Check status&lt;br&gt;&amp;nbsp;of opening file" style="text;html=1;align=center;verticalAlign=middle;resizable=0;points=[];autosize=1;strokeColor=none;fillColor=none;" vertex="1" parent="1">
          <mxGeometry x="80" y="200" width="110" height="40" as="geometry" />
        </mxCell>
        <mxCell id="hbSXom2dbgFghSXixdbO-25" value="" style="html=1;verticalAlign=bottom;labelBackgroundColor=none;endArrow=open;endFill=0;dashed=1;rounded=0;" edge="1" parent="1" source="hbSXom2dbgFghSXixdbO-35">
          <mxGeometry width="160" relative="1" as="geometry">
            <mxPoint x="220" y="194.58" as="sourcePoint" />
            <mxPoint x="80" y="194.58" as="targetPoint" />
          </mxGeometry>
        </mxCell>
        <mxCell id="hbSXom2dbgFghSXixdbO-26" value="&lt;b&gt;Alt&lt;/b&gt; If choose S-record File" style="shape=umlFrame;whiteSpace=wrap;html=1;pointerEvents=0;recursiveResize=0;container=1;collapsible=0;width=170;height=25;" vertex="1" parent="1">
          <mxGeometry x="190" y="95" width="460" height="475" as="geometry" />
        </mxCell>
        <mxCell id="hbSXom2dbgFghSXixdbO-27" value="S-Record File" style="text;html=1;rotation=0;" vertex="1" parent="hbSXom2dbgFghSXixdbO-26">
          <mxGeometry width="80" height="20" relative="1" as="geometry">
            <mxPoint x="100" y="105" as="offset" />
          </mxGeometry>
        </mxCell>
        <mxCell id="hbSXom2dbgFghSXixdbO-28" value="" style="line;strokeWidth=1;dashed=1;labelPosition=center;verticalLabelPosition=bottom;align=left;verticalAlign=top;spacingLeft=20;spacingTop=15;html=1;whiteSpace=wrap;movable=1;resizable=1;rotatable=1;deletable=1;editable=1;locked=0;connectable=1;" vertex="1" parent="hbSXom2dbgFghSXixdbO-26">
          <mxGeometry y="225" width="290" height="10" as="geometry" />
        </mxCell>
        <mxCell id="XGFhPhTS7b6WaqCF0Jd6-4" value="" style="html=1;verticalAlign=bottom;labelBackgroundColor=none;endArrow=block;endFill=1;rounded=0;" edge="1" parent="hbSXom2dbgFghSXixdbO-26" target="XGFhPhTS7b6WaqCF0Jd6-2">
          <mxGeometry width="160" relative="1" as="geometry">
            <mxPoint x="230" y="155" as="sourcePoint" />
            <mxPoint x="360" y="155" as="targetPoint" />
          </mxGeometry>
        </mxCell>
        <mxCell id="XGFhPhTS7b6WaqCF0Jd6-10" value="" style="html=1;verticalAlign=bottom;labelBackgroundColor=none;endArrow=block;endFill=1;rounded=0;" edge="1" parent="hbSXom2dbgFghSXixdbO-26">
          <mxGeometry width="160" relative="1" as="geometry">
            <mxPoint x="80" y="335" as="sourcePoint" />
            <mxPoint x="210" y="335" as="targetPoint" />
          </mxGeometry>
        </mxCell>
        <mxCell id="XGFhPhTS7b6WaqCF0Jd6-11" value="" style="html=1;verticalAlign=bottom;labelBackgroundColor=none;endArrow=block;endFill=1;rounded=0;" edge="1" parent="hbSXom2dbgFghSXixdbO-26">
          <mxGeometry width="160" relative="1" as="geometry">
            <mxPoint x="230" y="385" as="sourcePoint" />
            <mxPoint x="370" y="385" as="targetPoint" />
          </mxGeometry>
        </mxCell>
        <mxCell id="o-i-3hJ7--swOHWTaN59-1" value="8: Return result after check" style="text;html=1;align=center;verticalAlign=middle;resizable=0;points=[];autosize=1;strokeColor=none;fillColor=none;" vertex="1" parent="hbSXom2dbgFghSXixdbO-26">
          <mxGeometry x="50" y="395" width="170" height="30" as="geometry" />
        </mxCell>
        <mxCell id="o-i-3hJ7--swOHWTaN59-2" value="5: Return result after check" style="text;html=1;align=center;verticalAlign=middle;resizable=0;points=[];autosize=1;strokeColor=none;fillColor=none;" vertex="1" parent="hbSXom2dbgFghSXixdbO-26">
          <mxGeometry x="70" y="155" width="170" height="30" as="geometry" />
        </mxCell>
        <mxCell id="hbSXom2dbgFghSXixdbO-38" value="Binary File" style="text;html=1;rotation=0;" vertex="1" parent="hbSXom2dbgFghSXixdbO-26">
          <mxGeometry width="80" height="20" relative="1" as="geometry">
            <mxPoint x="115" y="335" as="offset" />
          </mxGeometry>
        </mxCell>
        <mxCell id="4opwbVKzTwpoTcLKCkoP-1" value="6: Convert to&lt;br&gt;&amp;nbsp;S-record format" style="text;html=1;align=center;verticalAlign=middle;resizable=0;points=[];autosize=1;strokeColor=none;fillColor=none;" vertex="1" parent="hbSXom2dbgFghSXixdbO-26">
          <mxGeometry x="90" y="295" width="110" height="40" as="geometry" />
        </mxCell>
        <mxCell id="4opwbVKzTwpoTcLKCkoP-3" value="3: Convert to&lt;br&gt;&amp;nbsp;Binary format" style="text;html=1;align=center;verticalAlign=middle;resizable=0;points=[];autosize=1;strokeColor=none;fillColor=none;" vertex="1" parent="hbSXom2dbgFghSXixdbO-26">
          <mxGeometry x="95" y="65" width="100" height="40" as="geometry" />
        </mxCell>
        <mxCell id="4opwbVKzTwpoTcLKCkoP-4" value="4: Write to file" style="text;html=1;align=center;verticalAlign=middle;resizable=0;points=[];autosize=1;strokeColor=none;fillColor=none;" vertex="1" parent="hbSXom2dbgFghSXixdbO-26">
          <mxGeometry x="260" y="125" width="100" height="30" as="geometry" />
        </mxCell>
        <mxCell id="4opwbVKzTwpoTcLKCkoP-5" value="7: Write to file" style="text;html=1;align=center;verticalAlign=middle;resizable=0;points=[];autosize=1;strokeColor=none;fillColor=none;" vertex="1" parent="hbSXom2dbgFghSXixdbO-26">
          <mxGeometry x="260" y="355" width="100" height="30" as="geometry" />
        </mxCell>
        <mxCell id="hbSXom2dbgFghSXixdbO-34" value="File Choice" style="shape=umlLifeline;perimeter=lifelinePerimeter;whiteSpace=wrap;html=1;container=1;dropTarget=0;collapsible=0;recursiveResize=0;outlineConnect=0;portConstraint=eastwest;newEdgeStyle={&quot;edgeStyle&quot;:&quot;elbowEdgeStyle&quot;,&quot;elbow&quot;:&quot;vertical&quot;,&quot;curved&quot;:0,&quot;rounded&quot;:0};" vertex="1" parent="1">
          <mxGeometry x="210" y="40" width="100" height="580" as="geometry" />
        </mxCell>
        <mxCell id="hbSXom2dbgFghSXixdbO-35" value="" style="html=1;points=[[0,0,0,0,5],[0,1,0,0,-5],[1,0,0,0,5],[1,1,0,0,-5]];perimeter=orthogonalPerimeter;outlineConnect=0;targetShapes=umlLifeline;portConstraint=eastwest;newEdgeStyle={&quot;curved&quot;:0,&quot;rounded&quot;:0};" vertex="1" parent="hbSXom2dbgFghSXixdbO-34">
          <mxGeometry x="40" y="110" width="20" height="300" as="geometry" />
        </mxCell>
        <mxCell id="WH1frRuUQi2VbDrMNAwc-1" value="Converter" style="shape=umlLifeline;perimeter=lifelinePerimeter;whiteSpace=wrap;html=1;container=1;dropTarget=0;collapsible=0;recursiveResize=0;outlineConnect=0;portConstraint=eastwest;newEdgeStyle={&quot;edgeStyle&quot;:&quot;elbowEdgeStyle&quot;,&quot;elbow&quot;:&quot;vertical&quot;,&quot;curved&quot;:0,&quot;rounded&quot;:0};" vertex="1" parent="1">
          <mxGeometry x="360" y="40" width="100" height="580" as="geometry" />
        </mxCell>
        <mxCell id="WH1frRuUQi2VbDrMNAwc-2" value="" style="html=1;points=[[0,0,0,0,5],[0,1,0,0,-5],[1,0,0,0,5],[1,1,0,0,-5]];perimeter=orthogonalPerimeter;outlineConnect=0;targetShapes=umlLifeline;portConstraint=eastwest;newEdgeStyle={&quot;curved&quot;:0,&quot;rounded&quot;:0};" vertex="1" parent="WH1frRuUQi2VbDrMNAwc-1">
          <mxGeometry x="40" y="160" width="20" height="50" as="geometry" />
        </mxCell>
        <mxCell id="WH1frRuUQi2VbDrMNAwc-3" value="" style="html=1;points=[[0,0,0,0,5],[0,1,0,0,-5],[1,0,0,0,5],[1,1,0,0,-5]];perimeter=orthogonalPerimeter;outlineConnect=0;targetShapes=umlLifeline;portConstraint=eastwest;newEdgeStyle={&quot;curved&quot;:0,&quot;rounded&quot;:0};" vertex="1" parent="WH1frRuUQi2VbDrMNAwc-1">
          <mxGeometry x="40" y="390" width="20" height="50" as="geometry" />
        </mxCell>
        <mxCell id="WH1frRuUQi2VbDrMNAwc-4" value="" style="html=1;verticalAlign=bottom;labelBackgroundColor=none;endArrow=block;endFill=1;rounded=0;" edge="1" parent="1">
          <mxGeometry width="160" relative="1" as="geometry">
            <mxPoint x="269.9999999999998" y="200" as="sourcePoint" />
            <mxPoint x="400" y="200" as="targetPoint" />
          </mxGeometry>
        </mxCell>
        <mxCell id="WH1frRuUQi2VbDrMNAwc-9" value="S-Record Converter" style="text;html=1;rotation=90;" vertex="1" parent="1">
          <mxGeometry width="80" height="20" relative="1" as="geometry">
            <mxPoint x="400" y="210" as="offset" />
          </mxGeometry>
        </mxCell>
        <mxCell id="XGFhPhTS7b6WaqCF0Jd6-1" value="File after convert" style="shape=umlLifeline;perimeter=lifelinePerimeter;whiteSpace=wrap;html=1;container=1;dropTarget=0;collapsible=0;recursiveResize=0;outlineConnect=0;portConstraint=eastwest;newEdgeStyle={&quot;edgeStyle&quot;:&quot;elbowEdgeStyle&quot;,&quot;elbow&quot;:&quot;vertical&quot;,&quot;curved&quot;:0,&quot;rounded&quot;:0};" vertex="1" parent="1">
          <mxGeometry x="520" y="40" width="100" height="580" as="geometry" />
        </mxCell>
        <mxCell id="XGFhPhTS7b6WaqCF0Jd6-2" value="" style="html=1;points=[[0,0,0,0,5],[0,1,0,0,-5],[1,0,0,0,5],[1,1,0,0,-5]];perimeter=orthogonalPerimeter;outlineConnect=0;targetShapes=umlLifeline;portConstraint=eastwest;newEdgeStyle={&quot;curved&quot;:0,&quot;rounded&quot;:0};" vertex="1" parent="XGFhPhTS7b6WaqCF0Jd6-1">
          <mxGeometry x="40" y="210" width="20" height="50" as="geometry" />
        </mxCell>
        <mxCell id="XGFhPhTS7b6WaqCF0Jd6-3" value="" style="html=1;points=[[0,0,0,0,5],[0,1,0,0,-5],[1,0,0,0,5],[1,1,0,0,-5]];perimeter=orthogonalPerimeter;outlineConnect=0;targetShapes=umlLifeline;portConstraint=eastwest;newEdgeStyle={&quot;curved&quot;:0,&quot;rounded&quot;:0};" vertex="1" parent="XGFhPhTS7b6WaqCF0Jd6-1">
          <mxGeometry x="40" y="440" width="20" height="50" as="geometry" />
        </mxCell>
        <mxCell id="XGFhPhTS7b6WaqCF0Jd6-9" value="Binary file" style="text;html=1;rotation=90;" vertex="1" parent="1">
          <mxGeometry x="560.0000000000001" y="280" width="80" height="20" as="geometry" />
        </mxCell>
        <mxCell id="XGFhPhTS7b6WaqCF0Jd6-12" value="" style="line;strokeWidth=1;dashed=1;labelPosition=center;verticalLabelPosition=bottom;align=left;verticalAlign=top;spacingLeft=20;spacingTop=15;html=1;whiteSpace=wrap;movable=1;resizable=1;rotatable=1;deletable=1;editable=1;locked=0;connectable=1;" vertex="1" parent="1">
          <mxGeometry x="190" y="320" width="460" height="10" as="geometry" />
        </mxCell>
        <mxCell id="XGFhPhTS7b6WaqCF0Jd6-13" value="S-Record file" style="text;html=1;rotation=90;" vertex="1" parent="1">
          <mxGeometry x="560.0000000000001" y="500" width="80" height="20" as="geometry" />
        </mxCell>
        <mxCell id="XGFhPhTS7b6WaqCF0Jd6-14" value="Binary Converter" style="text;html=1;rotation=90;" vertex="1" parent="1">
          <mxGeometry x="400" y="450" width="80" height="20" as="geometry" />
        </mxCell>
        <mxCell id="Z-S0ggsfto7sWz4jgVk8-1" value="" style="html=1;verticalAlign=bottom;labelBackgroundColor=none;endArrow=open;endFill=0;dashed=1;rounded=0;" edge="1" parent="1" source="XGFhPhTS7b6WaqCF0Jd6-2" target="hbSXom2dbgFghSXixdbO-2">
          <mxGeometry width="160" relative="1" as="geometry">
            <mxPoint x="780" y="280" as="sourcePoint" />
            <mxPoint x="100" y="280" as="targetPoint" />
          </mxGeometry>
        </mxCell>
        <mxCell id="Z-S0ggsfto7sWz4jgVk8-2" value="" style="html=1;verticalAlign=bottom;labelBackgroundColor=none;endArrow=open;endFill=0;dashed=1;rounded=0;entryX=1;entryY=0.804;entryDx=0;entryDy=0;entryPerimeter=0;" edge="1" parent="1">
          <mxGeometry width="160" relative="1" as="geometry">
            <mxPoint x="560" y="520" as="sourcePoint" />
            <mxPoint x="80" y="519.8400000000001" as="targetPoint" />
          </mxGeometry>
        </mxCell>
        <mxCell id="7e1hdEQo-pNSwBcS8V6u-9" value="If don&#39;t choose S-record file" style="text;html=1;align=center;verticalAlign=middle;resizable=0;points=[];autosize=1;strokeColor=none;fillColor=none;" vertex="1" parent="1">
          <mxGeometry x="280" y="330" width="170" height="30" as="geometry" />
        </mxCell>
      </root>
    </mxGraphModel>
  </diagram>
  <diagram id="1N_TVt42l1XFrAhc_tgw" name="Class Diagram-Func1">
    <mxGraphModel dx="1274" dy="650" grid="1" gridSize="10" guides="1" tooltips="1" connect="1" arrows="1" fold="1" page="1" pageScale="1" pageWidth="850" pageHeight="1100" math="0" shadow="0">
      <root>
        <mxCell id="0" />
        <mxCell id="1" parent="0" />
        <mxCell id="PY24nDYcZka9s5-vr-Ef-1" value="S-Record Converter" style="swimlane;childLayout=stackLayout;horizontal=1;startSize=50;horizontalStack=0;rounded=1;fontSize=14;fontStyle=0;strokeWidth=2;resizeParent=0;resizeLast=1;shadow=0;dashed=0;align=center;arcSize=4;whiteSpace=wrap;html=1;movable=1;resizable=1;rotatable=1;deletable=1;editable=1;locked=0;connectable=1;" vertex="1" parent="1">
          <mxGeometry x="80" y="70" width="180" height="170" as="geometry">
            <mxRectangle x="80" y="90" width="140" height="50" as="alternateBounds" />
          </mxGeometry>
        </mxCell>
        <mxCell id="PY24nDYcZka9s5-vr-Ef-2" value="+ S[1] : char&lt;br&gt;+ Type : char&lt;br&gt;+ ByteCount: short&lt;br&gt;+ Address: unsinged int&lt;br&gt;+ Data1: char&lt;br&gt;+ Data2: int&amp;nbsp;&lt;br&gt;+ Checksum: char" style="align=left;strokeColor=none;fillColor=none;spacingLeft=4;fontSize=12;verticalAlign=top;resizable=1;rotatable=1;part=1;html=1;movable=1;deletable=1;editable=1;locked=0;connectable=1;" vertex="1" parent="PY24nDYcZka9s5-vr-Ef-1">
          <mxGeometry y="50" width="180" height="120" as="geometry" />
        </mxCell>
        <mxCell id="PY24nDYcZka9s5-vr-Ef-3" style="edgeStyle=orthogonalEdgeStyle;rounded=0;orthogonalLoop=1;jettySize=auto;html=1;exitX=1;exitY=0.25;exitDx=0;exitDy=0;entryX=0;entryY=0.25;entryDx=0;entryDy=0;" edge="1" parent="1" source="PY24nDYcZka9s5-vr-Ef-4" target="PY24nDYcZka9s5-vr-Ef-11">
          <mxGeometry relative="1" as="geometry" />
        </mxCell>
        <mxCell id="PY24nDYcZka9s5-vr-Ef-4" value="S-Record File" style="swimlane;fontStyle=0;align=center;verticalAlign=top;childLayout=stackLayout;horizontal=1;startSize=40;horizontalStack=0;resizeParent=1;resizeParentMax=0;resizeLast=0;collapsible=0;marginBottom=0;html=1;whiteSpace=wrap;" vertex="1" parent="1">
          <mxGeometry x="360" y="80" width="140" height="70" as="geometry" />
        </mxCell>
        <mxCell id="PY24nDYcZka9s5-vr-Ef-5" value="Built-in field" style="text;html=1;strokeColor=none;fillColor=none;align=left;verticalAlign=middle;spacingLeft=4;spacingRight=4;overflow=hidden;rotatable=0;points=[[0,0.5],[1,0.5]];portConstraint=eastwest;whiteSpace=wrap;" vertex="1" parent="PY24nDYcZka9s5-vr-Ef-4">
          <mxGeometry y="40" width="140" height="30" as="geometry" />
        </mxCell>
        <mxCell id="PY24nDYcZka9s5-vr-Ef-6" style="edgeStyle=orthogonalEdgeStyle;rounded=0;orthogonalLoop=1;jettySize=auto;html=1;exitX=1;exitY=0;exitDx=0;exitDy=0;entryX=0;entryY=0.25;entryDx=0;entryDy=0;" edge="1" parent="1" source="PY24nDYcZka9s5-vr-Ef-2" target="PY24nDYcZka9s5-vr-Ef-4">
          <mxGeometry relative="1" as="geometry" />
        </mxCell>
        <mxCell id="PY24nDYcZka9s5-vr-Ef-7" style="edgeStyle=orthogonalEdgeStyle;rounded=0;orthogonalLoop=1;jettySize=auto;html=1;exitX=1;exitY=0.25;exitDx=0;exitDy=0;entryX=0;entryY=0.5;entryDx=0;entryDy=0;" edge="1" parent="1" source="PY24nDYcZka9s5-vr-Ef-8" target="PY24nDYcZka9s5-vr-Ef-12">
          <mxGeometry relative="1" as="geometry" />
        </mxCell>
        <mxCell id="PY24nDYcZka9s5-vr-Ef-8" value="Data" style="swimlane;fontStyle=0;childLayout=stackLayout;horizontal=1;startSize=26;horizontalStack=0;resizeParent=1;resizeParentMax=0;resizeLast=0;collapsible=1;marginBottom=0;align=center;fontSize=14;" vertex="1" parent="1">
          <mxGeometry x="360" y="240" width="140" height="56" as="geometry" />
        </mxCell>
        <mxCell id="PY24nDYcZka9s5-vr-Ef-9" value="Data: int" style="text;strokeColor=none;fillColor=none;spacingLeft=4;spacingRight=4;overflow=hidden;rotatable=0;points=[[0,0.5],[1,0.5]];portConstraint=eastwest;fontSize=12;whiteSpace=wrap;html=1;" vertex="1" parent="PY24nDYcZka9s5-vr-Ef-8">
          <mxGeometry y="26" width="140" height="30" as="geometry" />
        </mxCell>
        <mxCell id="PY24nDYcZka9s5-vr-Ef-10" style="edgeStyle=orthogonalEdgeStyle;rounded=0;orthogonalLoop=1;jettySize=auto;html=1;exitX=0;exitY=0.5;exitDx=0;exitDy=0;entryX=0.5;entryY=1;entryDx=0;entryDy=0;" edge="1" parent="1" source="PY24nDYcZka9s5-vr-Ef-9" target="PY24nDYcZka9s5-vr-Ef-2">
          <mxGeometry relative="1" as="geometry" />
        </mxCell>
        <mxCell id="PY24nDYcZka9s5-vr-Ef-11" value="Checksum" style="swimlane;fontStyle=0;align=center;verticalAlign=top;childLayout=stackLayout;horizontal=1;startSize=40;horizontalStack=0;resizeParent=1;resizeParentMax=0;resizeLast=0;collapsible=0;marginBottom=0;html=1;whiteSpace=wrap;" vertex="1" parent="1">
          <mxGeometry x="560" y="80" width="140" height="70" as="geometry" />
        </mxCell>
        <mxCell id="PY24nDYcZka9s5-vr-Ef-12" value="checksum: char" style="text;html=1;strokeColor=none;fillColor=none;align=left;verticalAlign=middle;spacingLeft=4;spacingRight=4;overflow=hidden;rotatable=0;points=[[0,0.5],[1,0.5]];portConstraint=eastwest;whiteSpace=wrap;" vertex="1" parent="PY24nDYcZka9s5-vr-Ef-11">
          <mxGeometry y="40" width="140" height="30" as="geometry" />
        </mxCell>
      </root>
    </mxGraphModel>
  </diagram>
  <diagram id="P0GAhn3ULdmowO-MJWnO" name="Class Diagram-Func2">
    <mxGraphModel dx="1274" dy="650" grid="1" gridSize="10" guides="1" tooltips="1" connect="1" arrows="1" fold="1" page="1" pageScale="1" pageWidth="850" pageHeight="1100" math="0" shadow="0">
      <root>
        <mxCell id="0" />
        <mxCell id="1" parent="0" />
        <mxCell id="3EIKPmObHvVMxasXmHrZ-1" value="S-Record Converter" style="swimlane;childLayout=stackLayout;horizontal=1;startSize=50;horizontalStack=0;rounded=1;fontSize=14;fontStyle=0;strokeWidth=2;resizeParent=0;resizeLast=1;shadow=0;dashed=0;align=center;arcSize=4;whiteSpace=wrap;html=1;movable=1;resizable=1;rotatable=1;deletable=1;editable=1;locked=0;connectable=1;" vertex="1" parent="1">
          <mxGeometry x="80" y="70" width="180" height="170" as="geometry">
            <mxRectangle x="80" y="90" width="140" height="50" as="alternateBounds" />
          </mxGeometry>
        </mxCell>
        <mxCell id="3EIKPmObHvVMxasXmHrZ-2" value="+ S[1] : char&lt;br&gt;+ Type : char&lt;br&gt;+ ByteCount: short&lt;br&gt;+ Address: unsinged int&lt;br&gt;+ Data1: char&lt;br&gt;+ Data2: int&amp;nbsp;&lt;br&gt;+ Checksum: char" style="align=left;strokeColor=none;fillColor=none;spacingLeft=4;fontSize=12;verticalAlign=top;resizable=1;rotatable=1;part=1;html=1;movable=1;deletable=1;editable=1;locked=0;connectable=1;" vertex="1" parent="3EIKPmObHvVMxasXmHrZ-1">
          <mxGeometry y="50" width="180" height="120" as="geometry" />
        </mxCell>
        <mxCell id="EG-z0jg9ZV8_vDmWRS4x-1" style="edgeStyle=orthogonalEdgeStyle;rounded=0;orthogonalLoop=1;jettySize=auto;html=1;exitX=1;exitY=0.25;exitDx=0;exitDy=0;entryX=0;entryY=0.25;entryDx=0;entryDy=0;" edge="1" parent="1" source="3EIKPmObHvVMxasXmHrZ-3" target="7DaRtw08UC3EnB1lyIDP-1">
          <mxGeometry relative="1" as="geometry" />
        </mxCell>
        <mxCell id="3EIKPmObHvVMxasXmHrZ-3" value="S-Record File" style="swimlane;fontStyle=0;align=center;verticalAlign=top;childLayout=stackLayout;horizontal=1;startSize=40;horizontalStack=0;resizeParent=1;resizeParentMax=0;resizeLast=0;collapsible=0;marginBottom=0;html=1;whiteSpace=wrap;" vertex="1" parent="1">
          <mxGeometry x="360" y="80" width="140" height="70" as="geometry" />
        </mxCell>
        <mxCell id="3EIKPmObHvVMxasXmHrZ-4" value="Built-in field" style="text;html=1;strokeColor=none;fillColor=none;align=left;verticalAlign=middle;spacingLeft=4;spacingRight=4;overflow=hidden;rotatable=0;points=[[0,0.5],[1,0.5]];portConstraint=eastwest;whiteSpace=wrap;" vertex="1" parent="3EIKPmObHvVMxasXmHrZ-3">
          <mxGeometry y="40" width="140" height="30" as="geometry" />
        </mxCell>
        <mxCell id="3EIKPmObHvVMxasXmHrZ-8" style="edgeStyle=orthogonalEdgeStyle;rounded=0;orthogonalLoop=1;jettySize=auto;html=1;exitX=1;exitY=0;exitDx=0;exitDy=0;entryX=0;entryY=0.25;entryDx=0;entryDy=0;" edge="1" parent="1" source="3EIKPmObHvVMxasXmHrZ-2" target="3EIKPmObHvVMxasXmHrZ-3">
          <mxGeometry relative="1" as="geometry" />
        </mxCell>
        <mxCell id="EG-z0jg9ZV8_vDmWRS4x-2" style="edgeStyle=orthogonalEdgeStyle;rounded=0;orthogonalLoop=1;jettySize=auto;html=1;exitX=1;exitY=0.25;exitDx=0;exitDy=0;entryX=0;entryY=0.5;entryDx=0;entryDy=0;" edge="1" parent="1" source="xdYpHxU-YIDmifUucocH-1" target="7DaRtw08UC3EnB1lyIDP-2">
          <mxGeometry relative="1" as="geometry" />
        </mxCell>
        <mxCell id="xdYpHxU-YIDmifUucocH-1" value="Data" style="swimlane;fontStyle=0;childLayout=stackLayout;horizontal=1;startSize=26;horizontalStack=0;resizeParent=1;resizeParentMax=0;resizeLast=0;collapsible=1;marginBottom=0;align=center;fontSize=14;" vertex="1" parent="1">
          <mxGeometry x="360" y="240" width="140" height="56" as="geometry" />
        </mxCell>
        <mxCell id="xdYpHxU-YIDmifUucocH-2" value="Data: char" style="text;strokeColor=none;fillColor=none;spacingLeft=4;spacingRight=4;overflow=hidden;rotatable=0;points=[[0,0.5],[1,0.5]];portConstraint=eastwest;fontSize=12;whiteSpace=wrap;html=1;" vertex="1" parent="xdYpHxU-YIDmifUucocH-1">
          <mxGeometry y="26" width="140" height="30" as="geometry" />
        </mxCell>
        <mxCell id="w5lXF71tnnp60EW8SIKb-1" style="edgeStyle=orthogonalEdgeStyle;rounded=0;orthogonalLoop=1;jettySize=auto;html=1;exitX=0;exitY=0.5;exitDx=0;exitDy=0;entryX=0.5;entryY=1;entryDx=0;entryDy=0;" edge="1" parent="1" source="xdYpHxU-YIDmifUucocH-2" target="3EIKPmObHvVMxasXmHrZ-2">
          <mxGeometry relative="1" as="geometry" />
        </mxCell>
        <mxCell id="7DaRtw08UC3EnB1lyIDP-1" value="Checksum" style="swimlane;fontStyle=0;align=center;verticalAlign=top;childLayout=stackLayout;horizontal=1;startSize=40;horizontalStack=0;resizeParent=1;resizeParentMax=0;resizeLast=0;collapsible=0;marginBottom=0;html=1;whiteSpace=wrap;" vertex="1" parent="1">
          <mxGeometry x="560" y="80" width="140" height="70" as="geometry" />
        </mxCell>
        <mxCell id="7DaRtw08UC3EnB1lyIDP-2" value="chechsum: char" style="text;html=1;strokeColor=none;fillColor=none;align=left;verticalAlign=middle;spacingLeft=4;spacingRight=4;overflow=hidden;rotatable=0;points=[[0,0.5],[1,0.5]];portConstraint=eastwest;whiteSpace=wrap;" vertex="1" parent="7DaRtw08UC3EnB1lyIDP-1">
          <mxGeometry y="40" width="140" height="30" as="geometry" />
        </mxCell>
      </root>
    </mxGraphModel>
  </diagram>
  <diagram id="Zyrjcfhu7Fi-RaH0426E" name="Class Diagram-Func3">
    <mxGraphModel dx="1213" dy="619" grid="1" gridSize="10" guides="1" tooltips="1" connect="1" arrows="1" fold="1" page="1" pageScale="1" pageWidth="850" pageHeight="1100" math="0" shadow="0">
      <root>
        <mxCell id="0" />
        <mxCell id="1" parent="0" />
        <mxCell id="YsKszHx0Sj4TBBFYQ6Qg-4" value="File&amp;nbsp;" style="swimlane;fontStyle=0;align=center;verticalAlign=top;childLayout=stackLayout;horizontal=1;startSize=40;horizontalStack=0;resizeParent=1;resizeParentMax=0;resizeLast=0;collapsible=0;marginBottom=0;html=1;whiteSpace=wrap;" vertex="1" parent="1">
          <mxGeometry x="380" y="90" width="140" height="70" as="geometry" />
        </mxCell>
        <mxCell id="YsKszHx0Sj4TBBFYQ6Qg-5" value="Built-in field" style="text;html=1;strokeColor=none;fillColor=none;align=left;verticalAlign=middle;spacingLeft=4;spacingRight=4;overflow=hidden;rotatable=0;points=[[0,0.5],[1,0.5]];portConstraint=eastwest;whiteSpace=wrap;" vertex="1" parent="YsKszHx0Sj4TBBFYQ6Qg-4">
          <mxGeometry y="40" width="140" height="30" as="geometry" />
        </mxCell>
        <mxCell id="YsKszHx0Sj4TBBFYQ6Qg-13" value="File Choice" style="swimlane;childLayout=stackLayout;horizontal=1;startSize=50;horizontalStack=0;rounded=1;fontSize=14;fontStyle=0;strokeWidth=2;resizeParent=0;resizeLast=1;shadow=0;dashed=0;align=center;arcSize=4;whiteSpace=wrap;html=1;movable=1;resizable=1;rotatable=1;deletable=1;editable=1;locked=0;connectable=1;" vertex="1" parent="1">
          <mxGeometry x="100" y="290" width="160" height="110" as="geometry">
            <mxRectangle x="80" y="90" width="140" height="50" as="alternateBounds" />
          </mxGeometry>
        </mxCell>
        <mxCell id="YsKszHx0Sj4TBBFYQ6Qg-14" value="+ sFileName[25]: string&lt;br&gt;+ FILE&amp;nbsp;*fp&lt;br&gt;+ Data: char" style="align=left;strokeColor=none;fillColor=none;spacingLeft=4;fontSize=12;verticalAlign=top;resizable=1;rotatable=1;part=1;html=1;movable=1;deletable=1;editable=1;locked=0;connectable=1;" vertex="1" parent="YsKszHx0Sj4TBBFYQ6Qg-13">
          <mxGeometry y="50" width="160" height="60" as="geometry" />
        </mxCell>
        <mxCell id="UyjAbSIH2QvJgd8ZIZog-1" value="Converter" style="swimlane;childLayout=stackLayout;horizontal=1;startSize=50;horizontalStack=0;rounded=1;fontSize=14;fontStyle=0;strokeWidth=2;resizeParent=0;resizeLast=1;shadow=0;dashed=0;align=center;arcSize=4;whiteSpace=wrap;html=1;movable=1;resizable=1;rotatable=1;deletable=1;editable=1;locked=0;connectable=1;" vertex="1" parent="1">
          <mxGeometry x="90" y="30" width="180" height="170" as="geometry">
            <mxRectangle x="80" y="90" width="140" height="50" as="alternateBounds" />
          </mxGeometry>
        </mxCell>
        <mxCell id="UyjAbSIH2QvJgd8ZIZog-2" value="+ S[1] : char&lt;br&gt;+ Type : char&lt;br&gt;+ ByteCount: short&lt;br&gt;+ Address: unsinged int&lt;br&gt;+ Data: char&lt;br&gt;+ Checksum: char" style="align=left;strokeColor=none;fillColor=none;spacingLeft=4;fontSize=12;verticalAlign=top;resizable=1;rotatable=1;part=1;html=1;movable=1;deletable=1;editable=1;locked=0;connectable=1;" vertex="1" parent="UyjAbSIH2QvJgd8ZIZog-1">
          <mxGeometry y="50" width="180" height="120" as="geometry" />
        </mxCell>
        <mxCell id="UyjAbSIH2QvJgd8ZIZog-3" style="edgeStyle=orthogonalEdgeStyle;rounded=0;orthogonalLoop=1;jettySize=auto;html=1;exitX=0.5;exitY=0;exitDx=0;exitDy=0;entryX=0.5;entryY=1;entryDx=0;entryDy=0;" edge="1" parent="1" source="YsKszHx0Sj4TBBFYQ6Qg-13" target="UyjAbSIH2QvJgd8ZIZog-2">
          <mxGeometry relative="1" as="geometry">
            <mxPoint x="560" y="118" as="sourcePoint" />
            <mxPoint x="670" y="118" as="targetPoint" />
          </mxGeometry>
        </mxCell>
        <mxCell id="UyjAbSIH2QvJgd8ZIZog-4" style="edgeStyle=orthogonalEdgeStyle;rounded=0;orthogonalLoop=1;jettySize=auto;html=1;exitX=1;exitY=0.25;exitDx=0;exitDy=0;" edge="1" parent="1" source="UyjAbSIH2QvJgd8ZIZog-2">
          <mxGeometry relative="1" as="geometry">
            <mxPoint x="240" y="114.29" as="sourcePoint" />
            <mxPoint x="380" y="110" as="targetPoint" />
            <Array as="points">
              <mxPoint x="380" y="110" />
            </Array>
          </mxGeometry>
        </mxCell>
      </root>
    </mxGraphModel>
  </diagram>
</mxfile>
